<?xml version="1.0" encoding="utf-8"?>
<!-- Generator: Adobe Illustrator 16.0.0, SVG Export Plug-In . SVG Version: 6.00 Build 0)  -->
<!DOCTYPE svg PUBLIC "-//W3C//DTD SVG 1.1//EN" "http://www.w3.org/Graphics/SVG/1.1/DTD/svg11.dtd">
<svg version="1.1" id="Layer_2" xmlns="http://www.w3.org/2000/svg" xmlns:xlink="http://www.w3.org/1999/xlink" x="0px" y="0px"
	 width="1600px" height="900px" viewBox="0 0 1600 900" enable-background="new 0 0 1600 900" xml:space="preserve">
<rect fill="#161624" width="1600" height="900"/>
<ellipse fill="#0000FF" cx="880" cy="521" rx="16" ry="6"/>
<ellipse fill="#FF0000" cx="832" cy="521" rx="16" ry="6"/>
<ellipse fill="#FF00FF" cx="784" cy="521" rx="16" ry="6"/>
<ellipse fill="#00FF00" cx="736" cy="521" rx="16" ry="6"/>
<ellipse fill="#00B4FF" cx="688" cy="521" rx="16" ry="6"/>
<ellipse fill="#FFFF00" cx="640" cy="521" rx="16" ry="6"/>
<g>
	<path fill="#FFFFFF" d="M378.75,394.625c8.666,0,15.625,3.292,20.875,9.875c4.458,5.625,6.688,12.084,6.688,19.375
		c0,5.125-1.229,10.313-3.688,15.563c-2.459,5.25-5.844,9.209-10.156,11.875c-4.313,2.666-9.115,4-14.406,4
		c-8.625,0-15.479-3.438-20.563-10.313c-4.292-5.791-6.438-12.291-6.438-19.5c0-5.25,1.302-10.469,3.906-15.656
		c2.604-5.188,6.031-9.021,10.281-11.5C369.5,395.865,374,394.625,378.75,394.625z M376.813,398.687
		c-2.209,0-4.428,0.656-6.656,1.969c-2.229,1.313-4.031,3.615-5.406,6.906c-1.375,3.292-2.063,7.521-2.063,12.688
		c0,8.334,1.656,15.521,4.969,21.563c3.313,6.042,7.677,9.063,13.094,9.063c4.041,0,7.375-1.667,10-5
		c2.625-3.333,3.938-9.063,3.938-17.188c0-10.166-2.188-18.166-6.563-24C385.166,400.687,381.396,398.687,376.813,398.687z"/>
	<path fill="#FFFFFF" d="M431.75,406.812c4.166-4.166,6.625-6.563,7.375-7.188c1.875-1.583,3.896-2.813,6.063-3.688
		c2.166-0.875,4.313-1.313,6.438-1.313c3.583,0,6.666,1.042,9.25,3.125c2.583,2.084,4.313,5.104,5.188,9.063
		c4.291-5,7.916-8.281,10.875-9.844c2.958-1.563,6-2.344,9.125-2.344c3.041,0,5.739,0.781,8.094,2.344
		c2.354,1.563,4.219,4.115,5.594,7.656c0.916,2.417,1.375,6.209,1.375,11.375v24.625c0,3.584,0.271,6.042,0.813,7.375
		c0.416,0.917,1.188,1.698,2.313,2.344c1.125,0.646,2.958,0.969,5.5,0.969v2.25H481.5v-2.25h1.188c2.458,0,4.375-0.479,5.75-1.438
		c0.958-0.666,1.646-1.729,2.063-3.188c0.166-0.708,0.25-2.729,0.25-6.063V416c0-4.666-0.563-7.958-1.688-9.875
		c-1.625-2.666-4.229-4-7.813-4c-2.209,0-4.428,0.553-6.656,1.656c-2.229,1.104-4.928,3.156-8.094,6.156l-0.125,0.688l0.125,2.688
		v27.313c0,3.917,0.219,6.354,0.656,7.313c0.438,0.959,1.26,1.761,2.469,2.407c1.208,0.646,3.271,0.969,6.188,0.969v2.25h-28.938
		v-2.25c3.166,0,5.344-0.375,6.531-1.125c1.188-0.75,2.01-1.875,2.469-3.375c0.208-0.708,0.313-2.771,0.313-6.188V416
		c0-4.666-0.688-8.021-2.063-10.063c-1.834-2.666-4.396-4-7.688-4c-2.25,0-4.479,0.604-6.688,1.813
		c-3.459,1.834-6.125,3.896-8,6.188v30.688c0,3.75,0.26,6.188,0.781,7.313c0.521,1.125,1.291,1.969,2.313,2.532
		c1.021,0.563,3.094,0.844,6.219,0.844v2.25H412.75v-2.25c2.625,0,4.458-0.281,5.5-0.844c1.041-0.563,1.833-1.458,2.375-2.688
		c0.541-1.229,0.813-3.614,0.813-7.156V418.75c0-6.291-0.188-10.354-0.563-12.188c-0.292-1.375-0.75-2.322-1.375-2.844
		c-0.625-0.521-1.479-0.781-2.563-0.781c-1.167,0-2.563,0.313-4.188,0.938l-0.938-2.25l17.25-7h2.688V406.812z"/>
	<path fill="#FFFFFF" d="M523.938,417.875c-0.042,8.5,2.021,15.167,6.188,20c4.166,4.834,9.063,7.25,14.688,7.25
		c3.75,0,7.01-1.031,9.781-3.094c2.771-2.063,5.094-5.594,6.969-10.594l1.938,1.25c-0.875,5.709-3.417,10.906-7.625,15.594
		c-4.209,4.688-9.479,7.032-15.813,7.032c-6.875,0-12.761-2.678-17.656-8.032c-4.896-5.354-7.344-12.552-7.344-21.594
		c0-9.791,2.51-17.427,7.531-22.906c5.021-5.479,11.322-8.219,18.906-8.219c6.416,0,11.688,2.115,15.813,6.344
		c4.125,4.229,6.188,9.886,6.188,16.969H523.938z M523.938,414.25h26.5c-0.209-3.666-0.646-6.25-1.313-7.75
		c-1.042-2.333-2.594-4.166-4.656-5.5c-2.063-1.333-4.219-2-6.469-2c-3.459,0-6.553,1.344-9.281,4.031
		C525.989,405.718,524.396,409.458,523.938,414.25z"/>
	<path fill="#FFFFFF" d="M586.438,432.687c-3.5-1.708-6.188-4.094-8.063-7.156s-2.813-6.447-2.813-10.156
		c0-5.666,2.135-10.541,6.406-14.625c4.271-4.083,9.739-6.125,16.406-6.125c5.458,0,10.188,1.334,14.188,4h12.125
		c1.791,0,2.833,0.053,3.125,0.156c0.291,0.104,0.5,0.281,0.625,0.531c0.25,0.375,0.375,1.042,0.375,2
		c0,1.084-0.104,1.834-0.313,2.25c-0.125,0.209-0.344,0.375-0.656,0.5s-1.365,0.188-3.156,0.188h-7.438c2.333,3,3.5,6.834,3.5,11.5
		c0,5.334-2.042,9.896-6.125,13.688c-4.084,3.792-9.563,5.688-16.438,5.688c-2.834,0-5.729-0.416-8.688-1.25
		c-1.834,1.584-3.073,2.969-3.719,4.156c-0.646,1.188-0.969,2.198-0.969,3.031c0,0.709,0.344,1.396,1.031,2.063
		c0.688,0.667,2.031,1.146,4.031,1.438c1.166,0.167,4.083,0.313,8.75,0.438c8.583,0.209,14.146,0.5,16.688,0.875
		c3.875,0.542,6.969,1.979,9.281,4.313c2.313,2.334,3.469,5.207,3.469,8.625c0,4.707-2.209,9.125-6.625,13.25
		c-6.5,6.082-14.979,9.125-25.438,9.125c-8.042,0-14.834-1.813-20.375-5.438c-3.125-2.084-4.688-4.25-4.688-6.5c0-1,0.229-2,0.688-3
		c0.708-1.543,2.166-3.688,4.375-6.438c0.291-0.375,2.416-2.625,6.375-6.75c-2.167-1.291-3.698-2.447-4.594-3.469
		c-0.896-1.021-1.344-2.177-1.344-3.469c0-1.458,0.594-3.166,1.781-5.125C579.406,439.042,582.146,436.271,586.438,432.687z
		 M585.813,453.563c-1.959,2.125-3.438,4.104-4.438,5.938c-1,1.832-1.5,3.52-1.5,5.063c0,2,1.208,3.75,3.625,5.25
		c4.166,2.582,10.188,3.875,18.063,3.875c7.5,0,13.031-1.324,16.594-3.969c3.563-2.646,5.344-5.469,5.344-8.469
		c0-2.168-1.063-3.709-3.188-4.625c-2.167-0.918-6.459-1.459-12.875-1.625C598.063,454.75,590.854,454.27,585.813,453.563z
		 M597.313,397.625c-3.084,0-5.667,1.229-7.75,3.688c-2.084,2.459-3.125,6.229-3.125,11.313c0,6.584,1.416,11.688,4.25,15.313
		c2.166,2.75,4.916,4.125,8.25,4.125c3.166,0,5.771-1.188,7.813-3.563c2.041-2.375,3.063-6.104,3.063-11.188
		c0-6.625-1.438-11.813-4.313-15.563C603.375,399,600.646,397.625,597.313,397.625z"/>
	<path fill="#FFFFFF" d="M667.563,445.312c-5.875,4.542-9.563,7.167-11.063,7.875c-2.25,1.041-4.646,1.563-7.188,1.563
		c-3.959,0-7.219-1.354-9.781-4.063c-2.563-2.708-3.844-6.271-3.844-10.688c0-2.791,0.625-5.208,1.875-7.25
		c1.708-2.833,4.677-5.5,8.906-8c4.229-2.5,11.26-5.541,21.094-9.125v-2.25c0-5.708-0.906-9.625-2.719-11.75
		s-4.448-3.188-7.906-3.188c-2.625,0-4.709,0.709-6.25,2.125c-1.584,1.417-2.375,3.042-2.375,4.875l0.125,3.625
		c0,1.917-0.49,3.396-1.469,4.438c-0.979,1.042-2.261,1.563-3.844,1.563c-1.542,0-2.803-0.541-3.781-1.625
		c-0.979-1.083-1.469-2.563-1.469-4.438c0-3.583,1.833-6.875,5.5-9.875c3.666-3,8.813-4.5,15.438-4.5c5.083,0,9.25,0.854,12.5,2.563
		c2.458,1.292,4.271,3.313,5.438,6.063c0.75,1.792,1.125,5.459,1.125,11v19.438c0,5.459,0.104,8.803,0.313,10.031
		c0.208,1.229,0.552,2.053,1.031,2.469c0.479,0.417,1.031,0.625,1.656,0.625c0.666,0,1.25-0.146,1.75-0.438
		c0.875-0.541,2.563-2.063,5.063-4.563v3.5c-4.667,6.25-9.125,9.375-13.375,9.375c-2.042,0-3.667-0.709-4.875-2.125
		C668.229,451.146,667.604,448.729,667.563,445.312z M667.563,441.25v-21.813c-6.292,2.5-10.354,4.271-12.188,5.313
		c-3.292,1.834-5.646,3.75-7.063,5.75c-1.417,2-2.125,4.188-2.125,6.563c0,3,0.896,5.49,2.688,7.469
		c1.791,1.979,3.854,2.969,6.188,2.969C658.229,447.5,662.396,445.417,667.563,441.25z"/>
	<path fill="#FFFFFF" d="M772.563,431.812c-1.542,7.542-4.563,13.344-9.063,17.406c-4.5,4.063-9.479,6.094-14.938,6.094
		c-6.5,0-12.167-2.729-17-8.188c-4.834-5.458-7.25-12.833-7.25-22.125c0-9,2.677-16.313,8.031-21.938
		c5.354-5.625,11.781-8.438,19.281-8.438c5.625,0,10.25,1.49,13.875,4.469c3.625,2.979,5.438,6.073,5.438,9.281
		c0,1.584-0.511,2.865-1.531,3.844c-1.021,0.979-2.448,1.469-4.281,1.469c-2.459,0-4.313-0.791-5.563-2.375
		c-0.709-0.875-1.178-2.541-1.406-5c-0.229-2.458-1.073-4.333-2.531-5.625c-1.459-1.25-3.479-1.875-6.063-1.875
		c-4.167,0-7.521,1.542-10.063,4.625c-3.375,4.084-5.063,9.479-5.063,16.188c0,6.834,1.677,12.865,5.031,18.094
		c3.354,5.229,7.885,7.844,13.594,7.844c4.083,0,7.75-1.396,11-4.188c2.291-1.916,4.521-5.396,6.688-10.438L772.563,431.812z"/>
	<path fill="#FFFFFF" d="M808.75,394.625c8.666,0,15.625,3.292,20.875,9.875c4.458,5.625,6.688,12.084,6.688,19.375
		c0,5.125-1.229,10.313-3.688,15.563c-2.459,5.25-5.844,9.209-10.156,11.875c-4.313,2.666-9.115,4-14.406,4
		c-8.625,0-15.479-3.438-20.563-10.313c-4.292-5.791-6.438-12.291-6.438-19.5c0-5.25,1.302-10.469,3.906-15.656
		c2.604-5.188,6.031-9.021,10.281-11.5C799.5,395.865,804,394.625,808.75,394.625z M806.813,398.687
		c-2.209,0-4.428,0.656-6.656,1.969c-2.229,1.313-4.031,3.615-5.406,6.906c-1.375,3.292-2.063,7.521-2.063,12.688
		c0,8.334,1.656,15.521,4.969,21.563c3.313,6.042,7.677,9.063,13.094,9.063c4.041,0,7.375-1.667,10-5
		c2.625-3.333,3.938-9.063,3.938-17.188c0-10.166-2.188-18.166-6.563-24C815.166,400.687,811.396,398.687,806.813,398.687z"/>
	<path fill="#FFFFFF" d="M861.438,406.75c6.708-8.083,13.104-12.125,19.188-12.125c3.125,0,5.813,0.781,8.063,2.344
		s4.041,4.136,5.375,7.719c0.916,2.5,1.375,6.334,1.375,11.5v24.438c0,3.625,0.291,6.084,0.875,7.375
		c0.458,1.042,1.197,1.854,2.219,2.438c1.021,0.584,2.906,0.875,5.656,0.875v2.25h-28.313v-2.25h1.188
		c2.666,0,4.531-0.406,5.594-1.219c1.063-0.813,1.802-2.01,2.219-3.594c0.166-0.625,0.25-2.583,0.25-5.875v-23.438
		c0-5.208-0.678-8.989-2.031-11.344c-1.354-2.354-3.636-3.531-6.844-3.531c-4.959,0-9.896,2.709-14.813,8.125v30.188
		c0,3.875,0.229,6.271,0.688,7.188c0.583,1.209,1.385,2.094,2.406,2.657c1.021,0.563,3.094,0.844,6.219,0.844v2.25h-28.313v-2.25
		h1.25c2.916,0,4.885-0.74,5.906-2.219c1.021-1.479,1.531-4.302,1.531-8.469v-21.25c0-6.875-0.156-11.063-0.469-12.563
		s-0.792-2.521-1.438-3.063c-0.646-0.541-1.511-0.813-2.594-0.813c-1.167,0-2.563,0.313-4.188,0.938l-0.938-2.25l17.25-7h2.688
		V406.75z"/>
	<path fill="#FFFFFF" d="M945.75,394.625v19.5h-2.063c-1.584-6.125-3.615-10.291-6.094-12.5c-2.479-2.208-5.636-3.313-9.469-3.313
		c-2.917,0-5.271,0.771-7.063,2.313c-1.792,1.542-2.688,3.25-2.688,5.125c0,2.334,0.666,4.334,2,6
		c1.291,1.709,3.916,3.521,7.875,5.438l9.125,4.438c8.458,4.125,12.688,9.563,12.688,16.313c0,5.209-1.969,9.406-5.906,12.594
		c-3.938,3.188-8.344,4.781-13.219,4.781c-3.5,0-7.5-0.625-12-1.875c-1.375-0.416-2.5-0.625-3.375-0.625
		c-0.959,0-1.709,0.541-2.25,1.625h-2.063V434h2.063c1.166,5.834,3.396,10.229,6.688,13.188c3.291,2.959,6.979,4.438,11.063,4.438
		c2.875,0,5.219-0.844,7.031-2.532c1.813-1.688,2.719-3.719,2.719-6.094c0-2.875-1.011-5.291-3.031-7.25
		c-2.021-1.958-6.053-4.438-12.094-7.438c-6.042-3-10-5.708-11.875-8.125c-1.875-2.375-2.813-5.375-2.813-9
		c0-4.708,1.614-8.646,4.844-11.813c3.229-3.166,7.406-4.75,12.531-4.75c2.25,0,4.979,0.479,8.188,1.438
		c2.125,0.625,3.541,0.938,4.25,0.938c0.666,0,1.188-0.146,1.563-0.438c0.375-0.291,0.813-0.938,1.313-1.938H945.75z"/>
	<path fill="#FFFFFF" d="M1008.75,396.312V431c0,6.625,0.156,10.678,0.469,12.156c0.313,1.479,0.813,2.511,1.5,3.094
		c0.688,0.584,1.489,0.875,2.406,0.875c1.291,0,2.75-0.354,4.375-1.063l0.875,2.188l-17.125,7.063h-2.813v-12.125
		c-4.917,5.334-8.667,8.688-11.25,10.063c-2.584,1.375-5.313,2.063-8.188,2.063c-3.209,0-5.99-0.928-8.344-2.781
		c-2.354-1.854-3.99-4.24-4.906-7.157c-0.917-2.916-1.375-7.041-1.375-12.375v-25.563c0-2.708-0.292-4.583-0.875-5.625
		c-0.584-1.041-1.448-1.844-2.594-2.406c-1.146-0.563-3.219-0.822-6.219-0.781v-2.313h20.063v38.313c0,5.334,0.927,8.834,2.781,10.5
		c1.854,1.667,4.094,2.5,6.719,2.5c1.791,0,3.822-0.563,6.094-1.688c2.271-1.125,4.969-3.271,8.094-6.438v-32.438
		c0-3.25-0.594-5.447-1.781-6.594c-1.188-1.146-3.656-1.76-7.406-1.844v-2.313H1008.75z"/>
	<path fill="#FFFFFF" d="M1042.25,364.687v75.938c0,3.584,0.26,5.959,0.781,7.125c0.521,1.167,1.322,2.053,2.406,2.657
		c1.083,0.604,3.104,0.906,6.063,0.906v2.25h-28.063v-2.25c2.625,0,4.416-0.271,5.375-0.813c0.958-0.542,1.708-1.438,2.25-2.688
		c0.541-1.25,0.813-3.646,0.813-7.188v-52c0-6.458-0.146-10.427-0.438-11.906c-0.292-1.479-0.761-2.489-1.406-3.031
		c-0.646-0.541-1.469-0.813-2.469-0.813c-1.084,0-2.459,0.334-4.125,1l-1.063-2.188l17.063-7H1042.25z"/>
	<path fill="#FFFFFF" d="M1074.75,377.5v18.813h13.375v4.375h-13.375v37.125c0,3.709,0.531,6.209,1.594,7.5
		c1.063,1.292,2.427,1.938,4.094,1.938c1.375,0,2.708-0.427,4-1.281c1.291-0.854,2.291-2.114,3-3.781h2.438
		c-1.459,4.084-3.521,7.156-6.188,9.219c-2.667,2.063-5.417,3.094-8.25,3.094c-1.917,0-3.792-0.531-5.625-1.594
		c-1.834-1.063-3.188-2.584-4.063-4.563c-0.875-1.979-1.313-5.031-1.313-9.156v-38.5h-9.063v-2.063
		c2.291-0.916,4.635-2.469,7.031-4.656c2.396-2.188,4.531-4.781,6.406-7.781c0.958-1.583,2.291-4.479,4-8.688H1074.75z"/>
	<path fill="#FFFFFF" d="M1113.438,394.625v46c0,3.584,0.26,5.969,0.781,7.156c0.521,1.188,1.291,2.073,2.313,2.657
		c1.021,0.584,2.885,0.875,5.594,0.875v2.25h-27.813v-2.25c2.791,0,4.666-0.271,5.625-0.813c0.958-0.542,1.719-1.438,2.281-2.688
		s0.844-3.646,0.844-7.188v-22.063c0-6.208-0.188-10.229-0.563-12.063c-0.292-1.333-0.75-2.26-1.375-2.781
		c-0.625-0.521-1.479-0.781-2.563-0.781c-1.167,0-2.584,0.313-4.25,0.938l-0.875-2.25l17.25-7H1113.438z M1108.25,364.687
		c1.75,0,3.239,0.615,4.469,1.844c1.229,1.229,1.844,2.719,1.844,4.469s-0.615,3.25-1.844,4.5c-1.229,1.25-2.719,1.875-4.469,1.875
		s-3.25-0.625-4.5-1.875s-1.875-2.75-1.875-4.5s0.614-3.239,1.844-4.469C1104.947,365.302,1106.458,364.687,1108.25,364.687z"/>
	<path fill="#FFFFFF" d="M1145.938,406.75c6.708-8.083,13.104-12.125,19.188-12.125c3.125,0,5.813,0.781,8.063,2.344
		s4.041,4.136,5.375,7.719c0.916,2.5,1.375,6.334,1.375,11.5v24.438c0,3.625,0.291,6.084,0.875,7.375
		c0.458,1.042,1.197,1.854,2.219,2.438c1.021,0.584,2.906,0.875,5.656,0.875v2.25h-28.313v-2.25h1.188
		c2.666,0,4.531-0.406,5.594-1.219c1.063-0.813,1.802-2.01,2.219-3.594c0.166-0.625,0.25-2.583,0.25-5.875v-23.438
		c0-5.208-0.678-8.989-2.031-11.344c-1.354-2.354-3.636-3.531-6.844-3.531c-4.959,0-9.896,2.709-14.813,8.125v30.188
		c0,3.875,0.229,6.271,0.688,7.188c0.583,1.209,1.385,2.094,2.406,2.657c1.021,0.563,3.094,0.844,6.219,0.844v2.25h-28.313v-2.25
		h1.25c2.916,0,4.885-0.74,5.906-2.219c1.021-1.479,1.531-4.302,1.531-8.469v-21.25c0-6.875-0.156-11.063-0.469-12.563
		s-0.792-2.521-1.438-3.063c-0.646-0.541-1.511-0.813-2.594-0.813c-1.167,0-2.563,0.313-4.188,0.938l-0.938-2.25l17.25-7h2.688
		V406.75z"/>
	<path fill="#FFFFFF" d="M1208.563,432.687c-3.5-1.708-6.188-4.094-8.063-7.156s-2.813-6.447-2.813-10.156
		c0-5.666,2.135-10.541,6.406-14.625c4.271-4.083,9.739-6.125,16.406-6.125c5.458,0,10.188,1.334,14.188,4h12.125
		c1.791,0,2.833,0.053,3.125,0.156c0.291,0.104,0.5,0.281,0.625,0.531c0.25,0.375,0.375,1.042,0.375,2
		c0,1.084-0.104,1.834-0.313,2.25c-0.125,0.209-0.344,0.375-0.656,0.5s-1.365,0.188-3.156,0.188h-7.438c2.333,3,3.5,6.834,3.5,11.5
		c0,5.334-2.042,9.896-6.125,13.688c-4.084,3.792-9.563,5.688-16.438,5.688c-2.834,0-5.729-0.416-8.688-1.25
		c-1.834,1.584-3.073,2.969-3.719,4.156c-0.646,1.188-0.969,2.198-0.969,3.031c0,0.709,0.344,1.396,1.031,2.063
		c0.688,0.667,2.031,1.146,4.031,1.438c1.166,0.167,4.083,0.313,8.75,0.438c8.583,0.209,14.146,0.5,16.688,0.875
		c3.875,0.542,6.969,1.979,9.281,4.313c2.313,2.334,3.469,5.207,3.469,8.625c0,4.707-2.209,9.125-6.625,13.25
		c-6.5,6.082-14.979,9.125-25.438,9.125c-8.042,0-14.834-1.813-20.375-5.438c-3.125-2.084-4.688-4.25-4.688-6.5c0-1,0.229-2,0.688-3
		c0.708-1.543,2.166-3.688,4.375-6.438c0.291-0.375,2.416-2.625,6.375-6.75c-2.167-1.291-3.698-2.447-4.594-3.469
		c-0.896-1.021-1.344-2.177-1.344-3.469c0-1.458,0.594-3.166,1.781-5.125C1201.531,439.042,1204.271,436.271,1208.563,432.687z
		 M1207.938,453.563c-1.959,2.125-3.438,4.104-4.438,5.938c-1,1.832-1.5,3.52-1.5,5.063c0,2,1.208,3.75,3.625,5.25
		c4.166,2.582,10.188,3.875,18.063,3.875c7.5,0,13.031-1.324,16.594-3.969c3.563-2.646,5.344-5.469,5.344-8.469
		c0-2.168-1.063-3.709-3.188-4.625c-2.167-0.918-6.459-1.459-12.875-1.625C1220.188,454.75,1212.979,454.27,1207.938,453.563z
		 M1219.438,397.625c-3.084,0-5.667,1.229-7.75,3.688c-2.084,2.459-3.125,6.229-3.125,11.313c0,6.584,1.416,11.688,4.25,15.313
		c2.166,2.75,4.916,4.125,8.25,4.125c3.166,0,5.771-1.188,7.813-3.563c2.041-2.375,3.063-6.104,3.063-11.188
		c0-6.625-1.438-11.813-4.313-15.563C1225.5,399,1222.771,397.625,1219.438,397.625z"/>
</g>
</svg>
