<?xml version="1.0" encoding="utf-8"?>
<!-- Generator: Adobe Illustrator 16.0.0, SVG Export Plug-In . SVG Version: 6.00 Build 0)  -->
<!DOCTYPE svg PUBLIC "-//W3C//DTD SVG 1.1//EN" "http://www.w3.org/Graphics/SVG/1.1/DTD/svg11.dtd">
<svg version="1.1" id="Layer_2" xmlns="http://www.w3.org/2000/svg" xmlns:xlink="http://www.w3.org/1999/xlink" x="0px" y="0px"
	 width="768px" height="512px" viewBox="0 0 768 512" enable-background="new 0 0 768 512" xml:space="preserve">
<g>
	<path fill="#00B4FF" d="M48,504c-22.056,0-40-17.944-40-40V48C8,25.944,25.944,8,48,8h672c22.056,0,40,17.944,40,40v416
		c0,22.056-17.944,40-40,40H48z"/>
	<path fill="#161616" d="M720,16c17.6,0,32,14.4,32,32v416c0,17.6-14.4,32-32,32H48c-17.6,0-32-14.4-32-32V48c0-17.6,14.4-32,32-32
		H720 M720,0H48C21.533,0,0,21.533,0,48v416c0,26.468,21.533,48,48,48h672c26.467,0,48-21.532,48-48V48C768,21.533,746.467,0,720,0
		L720,0z"/>
</g>
<g>
	<g>
		<g>
			<path fill="#161616" d="M202.419,376.784c-29.778,0-53.078-7.075-69.252-21.028c-16.211-13.98-26.015-34.51-29.139-61.016
				c-0.125-1.067,0.184-2.141,0.858-2.978c0.675-0.837,1.658-1.367,2.728-1.472l36.984-3.596c0.4-0.039,0.801-0.058,1.203-0.058
				c5.881,0,11.622,4.172,13.354,9.704c1.524,4.854,6.805,18.591,12.857,23.767c7.487,6.406,17.875,9.654,30.876,9.654
				c13.845,0,24.298-2.864,31.069-8.515c6.647-5.546,9.878-11.766,9.878-19.015c0-4.484-1.253-8.164-3.83-11.25
				c-2.696-3.224-7.706-6.153-14.89-8.706c-5.223-1.809-17.552-5.135-36.614-9.878c-25.641-6.355-43.249-14.054-53.829-23.535
				c-14.863-13.323-22.399-29.817-22.399-49.025c0-12.391,3.552-24.127,10.559-34.883c7.015-10.774,17.224-19.076,30.341-24.675
				c12.872-5.496,28.549-8.282,46.595-8.282c29.57,0,52.269,6.684,67.466,19.865c15.319,13.291,23.475,31.223,24.24,53.299
				c0.076,2.193-1.629,4.039-3.822,4.135l-38.202,1.678c-0.182,0.008-0.364,0.012-0.546,0.012c-6.09,0-12.021-4.354-13.797-10.128
				c-0.98-3.168-4.517-12.184-9.028-15.758c-5.749-4.553-14.758-6.862-26.778-6.862c-12.497,0-22.313,2.526-29.175,7.51
				c-3.88,2.808-5.685,6.291-5.685,10.967c0,4.211,1.78,7.753,5.44,10.83c3.652,3.066,13.695,8.066,40.795,14.465
				c22.692,5.359,39.786,11.018,50.807,16.821c11.36,5.985,20.383,14.292,26.82,24.691c6.455,10.43,9.729,23.4,9.729,38.552
				c0,13.821-3.886,26.938-11.549,38.984c-7.697,12.096-18.71,21.201-32.733,27.063
				C239.991,373.871,222.723,376.784,202.419,376.784z"/>
			<path fill="#161616" d="M199.766,136c28.716,0,50.331,6.297,64.845,18.887c14.514,12.592,22.135,29.398,22.863,50.416
				l-38.203,1.678c-0.123,0.005-0.247,0.008-0.37,0.008c-4.284,0-8.717-3.216-9.974-7.304c0,0-3.866-12.567-10.368-17.718
				c-6.503-5.151-16.257-7.727-29.262-7.727c-13.422,0-23.932,2.759-31.525,8.273c-4.892,3.539-7.335,8.272-7.335,14.204
				c0,5.413,2.288,10.043,6.867,13.892c5.826,4.892,19.976,9.99,42.449,15.296c22.474,5.307,39.094,10.797,49.863,16.467
				c10.769,5.673,19.196,13.423,25.282,23.257c6.086,9.833,9.13,21.982,9.13,36.446c0,13.111-3.643,25.392-10.924,36.837
				c-7.284,11.446-17.584,19.953-30.901,25.52c-13.319,5.564-29.913,8.351-49.785,8.351c-28.925,0-51.137-6.684-66.64-20.057
				c-15.504-13.371-24.762-32.856-27.779-58.455l36.984-3.596c0.271-0.026,0.543-0.039,0.816-0.039c4.127,0,8.304,2.96,9.537,6.899
				c0,0,5.803,18.537,14.074,25.611c8.271,7.077,19.43,10.614,33.476,10.614c14.878,0,26.087-3.147,33.632-9.443
				c7.543-6.294,11.315-13.657,11.315-22.086c0-5.411-1.587-10.016-4.76-13.814c-3.175-3.796-8.715-7.102-16.621-9.911
				c-5.411-1.873-17.74-5.201-36.987-9.99c-24.763-6.138-42.138-13.682-52.125-22.632c-14.046-12.59-21.069-27.94-21.069-46.046
				c0-11.653,3.302-22.555,9.91-32.7c6.606-10.146,16.126-17.872,28.56-23.179C167.173,138.653,182.182,136,199.766,136
				 M199.766,128c-18.589,0-34.794,2.895-48.166,8.603c-13.859,5.916-24.667,14.721-32.123,26.171
				c-7.436,11.416-11.206,23.886-11.206,37.065c0,20.394,7.983,37.89,23.729,52.003c11.079,9.929,29.246,17.923,55.54,24.439
				c18.904,4.704,31.107,7.993,36.266,9.775c8.075,2.874,11.598,5.661,13.13,7.494c1.976,2.364,2.897,5.125,2.897,8.682
				c0,5.989-2.761,11.204-8.44,15.943c-6.032,5.034-15.623,7.586-28.506,7.586c-12.021,0-21.534-2.925-28.275-8.693
				c-4.93-4.216-9.972-16.59-11.641-21.922c-2.269-7.249-9.491-12.51-17.171-12.51c-0.531,0-1.066,0.025-1.59,0.076l-36.985,3.596
				c-2.14,0.208-4.106,1.27-5.455,2.943c-1.349,1.674-1.967,3.82-1.715,5.956c3.245,27.531,13.506,48.921,30.5,63.577
				c16.921,14.597,41.1,21.998,71.864,21.998c20.835,0,38.623-3.018,52.869-8.969c14.792-6.184,26.422-15.808,34.566-28.606
				c8.079-12.699,12.175-26.537,12.175-41.132c0-15.906-3.475-29.586-10.328-40.657c-6.816-11.013-16.356-19.803-28.355-26.124
				c-11.48-6.045-28.408-11.663-51.753-17.175c-27.725-6.547-36.425-11.354-39.144-13.637c-2.774-2.331-4.012-4.727-4.012-7.766
				c0-3.372,1.204-5.681,4.024-7.722c6.176-4.485,15.201-6.754,26.836-6.754c11.096,0,19.27,2.018,24.294,5.998
				c3.407,2.699,6.707,10.606,7.688,13.799c2.271,7.383,9.846,12.951,17.621,12.951c0.24,0,0.481-0.005,0.721-0.016l38.203-1.678
				c4.385-0.192,7.796-3.882,7.644-8.27c-0.805-23.231-9.423-42.133-25.616-56.182C253.908,135.013,230.327,128,199.766,128
				L199.766,128z"/>
		</g>
		<g>
			<path fill="#161616" d="M444.984,372.727c-5.801,0-12.563-3.966-15.397-9.027l-33.855-60.492
				c-0.206-0.368-0.769-1.226-1.53-1.226c-0.467,0-1.008,0.298-1.524,0.838l-9.387,9.819c-2.313,2.419-4.419,7.67-4.419,11.018
				v37.07c0,6.617-5.383,12-12,12h-27.854c-6.617,0-12-5.383-12-12V147.902c0-6.617,5.383-12,12-12h27.854c6.617,0,12,5.383,12,12
				v102.832l39.059-44.407c3.692-4.199,10.694-7.365,16.287-7.365h37.998c5.348,0,7.177,2.884,7.715,4.124
				c0.537,1.24,1.395,4.545-2.259,8.451l-45.722,48.877c-1.8,1.925-2.24,5.757-0.923,8.04l52.713,91.346
				c1.781,3.087,1.954,6.328,0.473,8.893c-1.48,2.564-4.374,4.035-7.939,4.035H444.984z"/>
			<path fill="#161616" d="M366.87,139.902c4.4,0,8,3.6,8,8v105.436c0,2.609,0.836,3.986,2.123,3.986
				c0.883,0,1.978-0.648,3.161-1.993l40.779-46.363c2.905-3.304,8.883-6.007,13.283-6.007h37.998c4.4,0,5.541,2.629,2.535,5.842
				l-45.722,48.877c-3.006,3.214-3.666,8.961-1.467,12.771l52.713,91.346c2.199,3.811,0.398,6.929-4.002,6.929h-31.287
				c-4.4,0-9.758-3.142-11.907-6.981l-33.855-60.491c-1.207-2.156-3.076-3.272-5.021-3.272c-1.518,0-3.082,0.68-4.415,2.073
				l-9.388,9.819c-3.041,3.18-5.528,9.382-5.528,13.782v37.07c0,4.4-3.6,8-8,8h-27.854c-4.4,0-8-3.6-8-8V147.902c0-4.4,3.6-8,8-8
				H366.87 M366.87,131.902h-27.854c-8.822,0-16,7.178-16,16v212.824c0,8.822,7.178,16,16,16h27.854c8.822,0,16-7.178,16-16v-37.07
				c0-2.328,1.701-6.571,3.311-8.253l7.438-7.78l32.478,58.029c3.593,6.417,11.536,11.074,18.889,11.074h31.287
				c5.032,0,9.189-2.199,11.404-6.035c2.214-3.835,2.042-8.534-0.474-12.893l-52.713-91.346c-0.436-0.754-0.215-2.671,0.381-3.308
				l45.722-48.876c5.271-5.636,3.858-10.812,3.006-12.776c-0.852-1.964-3.667-6.532-11.384-6.532h-37.998
				c-6.732,0-14.846,3.669-19.291,8.724L382.87,240.13v-92.228C382.87,139.08,375.692,131.902,366.87,131.902L366.87,131.902z"/>
		</g>
		<g>
			<path fill="#161616" d="M528.906,440c-8.668,0-17.304-0.924-25.666-2.745c-1.674-0.364-2.93-1.755-3.123-3.457l-2.998-26.391
				c-0.351-3.086,0.498-5.954,2.391-8.073c1.838-2.06,4.463-3.193,7.392-3.193c0.595,0,1.203,0.048,1.809,0.143
				c0.048,0.007,4.932,0.753,10.052,0.753c9.012,0,15.4-2.456,19.533-7.507c4.296-5.261,7.698-12.041,10.119-20.165L488.675,211.86
				c-1.217-3.208-0.928-6.479,0.794-8.973s4.678-3.925,8.109-3.925h30.663c6.098,0,12.398,4.526,14.345,10.305l33.249,98.719
				l32.451-98.674c1.908-5.804,8.188-10.35,14.299-10.35H652c3.423,0,6.383,1.427,8.12,3.916s2.059,5.759,0.879,8.972l-53.014,144.5
				c-1.513,4.126-3.976,10.884-5.473,15.017l-5.009,13.833c-1.527,4.218-4.241,10.989-6.05,15.094
				c-0.182,0.412-4.483,10.143-8.135,15.486c-3.745,5.474-8.125,9.99-13.021,13.427c-4.887,3.426-10.93,6.118-17.961,8.004
				C545.414,439.062,537.531,440,528.906,440z"/>
			<path fill="#161616" d="M652,202.961c4.4,0,6.76,3.38,5.244,7.51l-53.014,144.5c-1.515,4.131-3.98,10.896-5.479,15.033
				l-5.009,13.832c-1.498,4.138-4.175,10.816-5.949,14.844c0,0-4.293,9.742-7.777,14.843c-3.487,5.097-7.491,9.232-12.017,12.409
				c-4.525,3.172-10.094,5.643-16.699,7.414c-6.609,1.768-14.072,2.653-22.395,2.653c-8.428,0-16.699-0.886-24.814-2.653
				l-2.998-26.391c-0.45-3.96,2.094-6.815,5.808-6.815c0.387,0,0.785,0.031,1.194,0.095c0,0,5.149,0.801,10.666,0.801
				c10.195,0,17.736-2.993,22.629-8.975c4.889-5.986,8.635-13.607,11.237-22.867l-60.213-158.753
				c-1.561-4.114,0.763-7.48,5.163-7.48h30.663c4.4,0,9.149,3.412,10.554,7.582l34.532,102.527c0.701,2.081,1.619,3.121,2.533,3.121
				c0.918,0,1.831-1.047,2.52-3.14l33.706-102.491c1.374-4.18,6.099-7.6,10.499-7.6H652 M652,194.961h-29.415
				c-7.862,0-15.644,5.632-18.099,13.101l-28.696,87.257l-29.413-87.33c-2.502-7.427-10.298-13.028-18.136-13.028h-30.663
				c-4.766,0-8.922,2.061-11.401,5.653c-2.479,3.592-2.932,8.208-1.241,12.664L544.188,369.5
				c-2.235,7.045-5.255,12.924-8.993,17.501c-3.32,4.06-8.696,6.035-16.433,6.035c-4.765,0-9.392-0.698-9.437-0.706
				c-0.81-0.125-1.624-0.189-2.424-0.189c-4.083,0-7.769,1.608-10.376,4.529c-2.661,2.981-3.861,6.955-3.381,11.189l2.998,26.391
				c0.387,3.404,2.898,6.185,6.246,6.913c8.643,1.883,17.563,2.837,26.518,2.837c8.975,0,17.204-0.984,24.461-2.925
				c7.49-2.009,13.956-4.898,19.225-8.592c5.294-3.716,10.012-8.574,14.027-14.442c3.795-5.556,8.025-15.068,8.495-16.135
				c1.84-4.174,4.599-11.058,6.151-15.346l5.008-13.832c1.496-4.13,3.957-10.88,5.468-15.003l53.014-144.499
				c1.636-4.457,1.142-9.064-1.355-12.64C660.903,197.012,656.748,194.961,652,194.961L652,194.961z"/>
		</g>
	</g>
</g>
<g>
	<g>
		<g>
			<path fill="#FFFFFF" d="M108,294.272l36.984-3.596c4.379-0.426,9.038,2.661,10.353,6.86c0,0,5.803,18.537,14.074,25.611
				c8.271,7.077,19.43,10.614,33.476,10.614c14.878,0,26.087-3.147,33.632-9.443c7.543-6.294,11.315-13.657,11.315-22.086
				c0-5.411-1.587-10.016-4.76-13.814c-3.175-3.796-8.715-7.102-16.621-9.911c-5.411-1.873-17.74-5.201-36.987-9.99
				c-24.763-6.138-42.138-13.682-52.125-22.632c-14.046-12.59-21.069-27.94-21.069-46.046c0-11.653,3.302-22.555,9.91-32.7
				c6.606-10.146,16.126-17.872,28.56-23.179c12.432-5.307,27.441-7.96,45.025-7.96c28.716,0,50.331,6.297,64.845,18.887
				c14.514,12.592,22.135,29.398,22.863,50.416l-38.203,1.678c-4.396,0.193-9.051-3.09-10.344-7.295c0,0-3.866-12.567-10.368-17.718
				c-6.503-5.151-16.257-7.727-29.262-7.727c-13.422,0-23.932,2.759-31.525,8.273c-4.892,3.539-7.335,8.272-7.335,14.204
				c0,5.413,2.288,10.043,6.867,13.892c5.826,4.892,19.976,9.99,42.449,15.296c22.474,5.307,39.094,10.797,49.863,16.467
				c10.769,5.673,19.196,13.423,25.282,23.257c6.086,9.833,9.13,21.982,9.13,36.446c0,13.111-3.643,25.392-10.924,36.837
				c-7.284,11.446-17.584,19.953-30.901,25.52c-13.319,5.564-29.913,8.351-49.785,8.351c-28.925,0-51.137-6.684-66.64-20.057
				C120.275,339.356,111.017,319.871,108,294.272z"/>
			<path fill="none" stroke="#161616" stroke-width="2" stroke-linecap="round" stroke-linejoin="round" stroke-miterlimit="10" d="
				M108,294.272l36.984-3.596c4.379-0.426,9.038,2.661,10.353,6.86c0,0,5.803,18.537,14.074,25.611
				c8.271,7.077,19.43,10.614,33.476,10.614c14.878,0,26.087-3.147,33.632-9.443c7.543-6.294,11.315-13.657,11.315-22.086
				c0-5.411-1.587-10.016-4.76-13.814c-3.175-3.796-8.715-7.102-16.621-9.911c-5.411-1.873-17.74-5.201-36.987-9.99
				c-24.763-6.138-42.138-13.682-52.125-22.632c-14.046-12.59-21.069-27.94-21.069-46.046c0-11.653,3.302-22.555,9.91-32.7
				c6.606-10.146,16.126-17.872,28.56-23.179c12.432-5.307,27.441-7.96,45.025-7.96c28.716,0,50.331,6.297,64.845,18.887
				c14.514,12.592,22.135,29.398,22.863,50.416l-38.203,1.678c-4.396,0.193-9.051-3.09-10.344-7.295c0,0-3.866-12.567-10.368-17.718
				c-6.503-5.151-16.257-7.727-29.262-7.727c-13.422,0-23.932,2.759-31.525,8.273c-4.892,3.539-7.335,8.272-7.335,14.204
				c0,5.413,2.288,10.043,6.867,13.892c5.826,4.892,19.976,9.99,42.449,15.296c22.474,5.307,39.094,10.797,49.863,16.467
				c10.769,5.673,19.196,13.423,25.282,23.257c6.086,9.833,9.13,21.982,9.13,36.446c0,13.111-3.643,25.392-10.924,36.837
				c-7.284,11.446-17.584,19.953-30.901,25.52c-13.319,5.564-29.913,8.351-49.785,8.351c-28.925,0-51.137-6.684-66.64-20.057
				C120.275,339.356,111.017,319.871,108,294.272z"/>
		</g>
		<g>
			<path fill="#FFFFFF" d="M339.016,368.727c-4.4,0-8-3.6-8-8V147.902c0-4.4,3.6-8,8-8h27.854c4.4,0,8,3.6,8,8v105.436
				c0,4.4,2.377,5.297,5.284,1.993l40.779-46.363c2.905-3.304,8.883-6.007,13.283-6.007h37.998c4.4,0,5.541,2.629,2.535,5.842
				l-45.722,48.877c-3.006,3.214-3.666,8.961-1.467,12.771l52.713,91.346c2.199,3.811,0.398,6.929-4.002,6.929h-31.287
				c-4.4,0-9.758-3.142-11.907-6.981l-33.855-60.491c-2.149-3.84-6.395-4.379-9.436-1.199l-9.388,9.819
				c-3.041,3.18-5.528,9.382-5.528,13.782v37.07c0,4.4-3.6,8-8,8H339.016z"/>
			<path fill="none" stroke="#161616" stroke-width="2" stroke-linecap="round" stroke-linejoin="round" stroke-miterlimit="10" d="
				M339.016,368.727c-4.4,0-8-3.6-8-8V147.902c0-4.4,3.6-8,8-8h27.854c4.4,0,8,3.6,8,8v105.436c0,4.4,2.377,5.297,5.284,1.993
				l40.779-46.363c2.905-3.304,8.883-6.007,13.283-6.007h37.998c4.4,0,5.541,2.629,2.535,5.842l-45.722,48.877
				c-3.006,3.214-3.666,8.961-1.467,12.771l52.713,91.346c2.199,3.811,0.398,6.929-4.002,6.929h-31.287
				c-4.4,0-9.758-3.142-11.907-6.981l-33.855-60.491c-2.149-3.84-6.395-4.379-9.436-1.199l-9.388,9.819
				c-3.041,3.18-5.528,9.382-5.528,13.782v37.07c0,4.4-3.6,8-8,8H339.016z"/>
		</g>
		<g>
			<path fill="#FFFFFF" d="M492.415,210.441c-1.561-4.114,0.763-7.48,5.163-7.48h30.663c4.4,0,9.149,3.412,10.554,7.582
				l34.532,102.527c1.404,4.169,3.679,4.161,5.053-0.019l33.706-102.491c1.374-4.18,6.099-7.6,10.499-7.6H652
				c4.4,0,6.76,3.38,5.244,7.51l-53.014,144.5c-1.515,4.131-3.98,10.896-5.479,15.033l-5.009,13.832
				c-1.498,4.138-4.175,10.816-5.949,14.844c0,0-4.293,9.742-7.777,14.843c-3.487,5.097-7.491,9.232-12.017,12.409
				c-4.525,3.172-10.094,5.643-16.699,7.414c-6.609,1.768-14.072,2.653-22.395,2.653c-8.428,0-16.699-0.886-24.814-2.653
				l-2.998-26.391c-0.497-4.372,2.654-7.396,7.002-6.721c0,0,5.149,0.801,10.666,0.801c10.195,0,17.736-2.993,22.629-8.975
				c4.889-5.986,8.635-13.607,11.237-22.867L492.415,210.441z"/>
			<path fill="none" stroke="#161616" stroke-width="2" stroke-linecap="round" stroke-linejoin="round" stroke-miterlimit="10" d="
				M492.415,210.441c-1.561-4.114,0.763-7.48,5.163-7.48h30.663c4.4,0,9.149,3.412,10.554,7.582l34.532,102.527
				c1.404,4.169,3.679,4.161,5.053-0.019l33.706-102.491c1.374-4.18,6.099-7.6,10.499-7.6H652c4.4,0,6.76,3.38,5.244,7.51
				l-53.014,144.5c-1.515,4.131-3.98,10.896-5.479,15.033l-5.009,13.832c-1.498,4.138-4.175,10.816-5.949,14.844
				c0,0-4.293,9.742-7.777,14.843c-3.487,5.097-7.491,9.232-12.017,12.409c-4.525,3.172-10.094,5.643-16.699,7.414
				c-6.609,1.768-14.072,2.653-22.395,2.653c-8.428,0-16.699-0.886-24.814-2.653l-2.998-26.391
				c-0.497-4.372,2.654-7.396,7.002-6.721c0,0,5.149,0.801,10.666,0.801c10.195,0,17.736-2.993,22.629-8.975
				c4.889-5.986,8.635-13.607,11.237-22.867L492.415,210.441z"/>
		</g>
	</g>
</g>
</svg>
